<?xml version="1.0" encoding="utf-8"?><svg xmlns="http://www.w3.org/2000/svg" xmlns:xlink="http://www.w3.org/1999/xlink" width="1920" height="969" preserveAspectRatio="xMidYMid" viewBox="0 0 1920 969" style="z-index:1;margin-right:-2px;display:block;background-repeat-y:initial;background-repeat-x:initial;background-color:rgb(255, 255, 255);animation-play-state:running" ><g transform="translate(960,484.5) scale(1,1) translate(-960,-484.5)" style="transform:matrix(1, 0, 0, 1, 0, 0);animation-play-state:running" ><defs style="animation-play-state:running" ><linearGradient id="ldbk-photon-iu7t3tapbor-lg" x1="935" x2="1920" y1="0" y2="0" gradientUnits="userSpaceOnUse" style="animation-play-state:running" ><stop stop-color="#1d3f72" offset="0" style="animation-play-state:running" ></stop>

    
<stop stop-color="#34ffef" offset="1" style="animation-play-state:running" ></stop></linearGradient>

  
<mask id="ldbk-photon-iu7t3tapbor-mask" style="animation-play-state:running" ><g style="animation-play-state:running" ><path d="M2220 -0.5 L942.4677794075197 -0.5 A15.5 15.5 0 0 1 942.4677794075197 31.5 L2220 31.5" fill="#fff" transform="matrix(1,0,0,1,47.65666961669922,0)" style="transform:matrix(1, 0, 0, 1, 47.6567, 0);animation-play-state:running" ></path>
<path d="M1983.2325182022234 -0.5 L2015.465036404447 -0.5 A15.5 15.5 0 0 1 2015.465036404447 31.5 L1983.2325182022234 31.5 A15.5 15.5 0 0 1 1983.2325182022234 -0.5" fill="#000" transform="matrix(1,0,0,1,0,0)" opacity="1" style="transform:matrix(1, 0, 0, 1, 0, 0);animation-play-state:running" ></path>
<path d="M2220 30.5 L912.914894993903 30.5 A15.5 15.5 0 0 0 912.914894993903 62.5 L2220 62.5" fill="#fff" transform="matrix(1,0,0,1,-42.59972381591797,0)" style="transform:matrix(1, 0, 0, 1, -42.5997, 0);animation-play-state:running" ></path>
<path d="M999.3424203510867 30.5 L1033.0679977746963 30.5 A15.5 15.5 0 0 1 1033.0679977746963 62.5 L999.3424203510867 62.5 A15.5 15.5 0 0 1 999.3424203510867 30.5" fill="#fff" transform="matrix(1,0,0,1,0,0)" opacity="1" style="transform:matrix(1, 0, 0, 1, 0, 0);animation-play-state:running" ></path>
<path d="M2220 61.5 L930.8030411663833 61.5 A15.5 15.5 0 0 1 930.8030411663833 93.5 L2220 93.5" fill="#fff" transform="matrix(1,0,0,1,20.841819763183594,0)" style="transform:matrix(1, 0, 0, 1, 20.8418, 0);animation-play-state:running" ></path>
<path d="M1988.1727761099373 61.5 L2025.3455522198747 61.5 A15.5 15.5 0 0 1 2025.3455522198747 93.5 L1988.1727761099373 93.5 A15.5 15.5 0 0 1 1988.1727761099373 61.5" fill="#000" transform="matrix(1,0,0,1,-284.8683776855469,0)" opacity="1" style="transform:matrix(1, 0, 0, 1, -284.868, 0);animation-play-state:running" ></path>
<path d="M2220 92.5 L897.8917864360944 92.5 A15.5 15.5 0 0 0 897.8917864360944 124.5 L2220 124.5" fill="#fff" transform="matrix(1,0,0,1,-0.6005691885948181,0)" style="transform:matrix(1, 0, 0, 1, -0.600569, 0);animation-play-state:running" ></path>
<path d="M1000.8339230531595 92.5 L1024.5562216855965 92.5 A15.5 15.5 0 0 1 1024.5562216855965 124.5 L1000.8339230531595 124.5 A15.5 15.5 0 0 1 1000.8339230531595 92.5" fill="#fff" transform="matrix(1,0,0,1,0,0)" opacity="0.223214" style="transform:matrix(1, 0, 0, 1, 0, 0);opacity:0.223214;animation-play-state:running" ></path>
<path d="M2220 123.5 L933.2157715434405 123.5 A15.5 15.5 0 0 1 933.2157715434405 155.5 L2220 155.5" fill="#fff" transform="matrix(1,0,0,1,39.46137237548828,0)" style="transform:matrix(1, 0, 0, 1, 39.4614, 0);animation-play-state:running" ></path>
<path d="M1969.143386483666 123.5 L1987.2867729673321 123.5 A15.5 15.5 0 0 1 1987.2867729673321 155.5 L1969.143386483666 155.5 A15.5 15.5 0 0 1 1969.143386483666 123.5" fill="#000" transform="matrix(1,0,0,1,-1651.119140625,0)" opacity="0.357143" style="transform:matrix(1, 0, 0, 1, -1651.12, 0);opacity:0.357143;animation-play-state:running" ></path>
<path d="M2220 154.5 L884.7753716340494 154.5 A15.5 15.5 0 0 0 884.7753716340494 186.5 L2220 186.5" fill="#fff" transform="matrix(1,0,0,1,-0.27086639404296875,0)" style="transform:matrix(1, 0, 0, 1, -0.270866, 0);animation-play-state:running" ></path>
<path d="M985.2104136329951 154.5 L1006.9035550326455 154.5 A15.5 15.5 0 0 1 1006.9035550326455 186.5 L985.2104136329951 186.5 A15.5 15.5 0 0 1 985.2104136329951 154.5" fill="#fff" transform="matrix(1,0,0,1,0,0)" opacity="0.0892857" style="transform:matrix(1, 0, 0, 1, 0, 0);opacity:0.0892857;animation-play-state:running" ></path>
<path d="M2220 185.5 L921.223412363374 185.5 A15.5 15.5 0 0 1 921.223412363374 217.5 L2220 217.5" fill="#fff" transform="matrix(1,0,0,1,0.7286629676818848,0)" style="transform:matrix(1, 0, 0, 1, 0.728663, 0);animation-play-state:running" ></path>
<path d="M1962.2377714127997 185.5 L1973.4755428255994 185.5 A15.5 15.5 0 0 1 1973.4755428255994 217.5 L1962.2377714127997 217.5 A15.5 15.5 0 0 1 1962.2377714127997 185.5" fill="#000" transform="matrix(1,0,0,1,-1293.6514892578125,0)" opacity="0.625" style="transform:matrix(1, 0, 0, 1, -1293.65, 0);opacity:0.625;animation-play-state:running" ></path>
<path d="M2220 216.5 L894.681840276302 216.5 A15.5 15.5 0 0 0 894.681840276302 248.5 L2220 248.5" fill="#fff" transform="matrix(1,0,0,1,-8.02121639251709,0)" style="transform:matrix(1, 0, 0, 1, -8.02122, 0);animation-play-state:running" ></path>
<path d="M979.0318848749216 216.5 L1015.1243177206597 216.5 A15.5 15.5 0 0 1 1015.1243177206597 248.5 L979.0318848749216 248.5 A15.5 15.5 0 0 1 979.0318848749216 216.5" fill="#fff" transform="matrix(1,0,0,1,0,0)" opacity="0.0446426" style="transform:matrix(1, 0, 0, 1, 0, 0);opacity:0.0446426;animation-play-state:running" ></path>
<path d="M2220 247.5 L938.4867356811806 247.5 A15.5 15.5 0 0 1 938.4867356811806 279.5 L2220 279.5" fill="#fff" transform="matrix(1,0,0,1,19.324939727783203,0)" style="transform:matrix(1, 0, 0, 1, 19.3249, 0);animation-play-state:running" ></path>
<path d="M1988.1097854061616 247.5 L2025.2195708123231 247.5 A15.5 15.5 0 0 1 2025.2195708123231 279.5 L1988.1097854061616 279.5 A15.5 15.5 0 0 1 1988.1097854061616 247.5" fill="#000" transform="matrix(1,0,0,1,-447.7438049316406,0)" opacity="1" style="transform:matrix(1, 0, 0, 1, -447.744, 0);animation-play-state:running" ></path>
<path d="M2220 278.5 L912.786576177328 278.5 A15.5 15.5 0 0 0 912.786576177328 310.5 L2220 310.5" fill="#fff" transform="matrix(1,0,0,1,-7.020477771759033,0)" style="transform:matrix(1, 0, 0, 1, -7.02048, 0);animation-play-state:running" ></path>
<path d="M974.4399560598681 278.5 L1011.3933565749562 278.5 A15.5 15.5 0 0 1 1011.3933565749562 310.5 L974.4399560598681 310.5 A15.5 15.5 0 0 1 974.4399560598681 278.5" fill="#fff" transform="matrix(1,0,0,1,0,0)" opacity="0.669643" style="transform:matrix(1, 0, 0, 1, 0, 0);opacity:0.669643;animation-play-state:running" ></path>
<path d="M2220 309.5 L940.7965204137222 309.5 A15.5 15.5 0 0 1 940.7965204137222 341.5 L2220 341.5" fill="#fff" transform="matrix(1,0,0,1,44.779876708984375,0)" style="transform:matrix(1, 0, 0, 1, 44.7799, 0);animation-play-state:running" ></path>
<path d="M1968.9355865961566 309.5 L1986.871173192313 309.5 A15.5 15.5 0 0 1 1986.871173192313 341.5 L1968.9355865961566 341.5 A15.5 15.5 0 0 1 1968.9355865961566 309.5" fill="#000" transform="matrix(1,0,0,1,-1901.7626953125,0)" opacity="0.0892857" style="transform:matrix(1, 0, 0, 1, -1901.76, 0);opacity:0.0892857;animation-play-state:running" ></path>
<path d="M2220 340.5 L871.1864850065967 340.5 A15.5 15.5 0 0 0 871.1864850065967 372.5 L2220 372.5" fill="#fff" transform="matrix(1,0,0,1,-32.5727653503418,0)" style="transform:matrix(1, 0, 0, 1, -32.5728, 0);animation-play-state:running" ></path>
<path d="M989.6980852461552 340.5 L1011.6427408662695 340.5 A15.5 15.5 0 0 1 1011.6427408662695 372.5 L989.6980852461552 372.5 A15.5 15.5 0 0 1 989.6980852461552 340.5" fill="#fff" transform="matrix(1,0,0,1,0,0)" opacity="1" style="transform:matrix(1, 0, 0, 1, 0, 0);animation-play-state:running" ></path>
<path d="M2220 371.5 L922.5401763326005 371.5 A15.5 15.5 0 0 1 922.5401763326005 403.5 L2220 403.5" fill="#fff" transform="matrix(1,0,0,1,16.65302085876465,0)" style="transform:matrix(1, 0, 0, 1, 16.653, 0);animation-play-state:running" ></path>
<path d="M1971.057459453426 371.5 L1991.114918906852 371.5 A15.5 15.5 0 0 1 1991.114918906852 403.5 L1971.057459453426 403.5 A15.5 15.5 0 0 1 1971.057459453426 371.5" fill="#000" transform="matrix(1,0,0,1,-899.5137329101562,0)" opacity="0.892857" style="transform:matrix(1, 0, 0, 1, -899.514, 0);opacity:0.892857;animation-play-state:running" ></path>
<path d="M2220 402.5 L873.2699496019088 402.5 A15.5 15.5 0 0 0 873.2699496019088 434.5 L2220 434.5" fill="#fff" transform="matrix(1,0,0,1,-6.801699161529541,0)" style="transform:matrix(1, 0, 0, 1, -6.8017, 0);animation-play-state:running" ></path>
<path d="M1001.1640079045072 402.5 L1016.2280739716148 402.5 A15.5 15.5 0 0 1 1016.2280739716148 434.5 L1001.1640079045072 434.5 A15.5 15.5 0 0 1 1001.1640079045072 402.5" fill="#fff" transform="matrix(1,0,0,1,0,0)" opacity="1" style="transform:matrix(1, 0, 0, 1, 0, 0);animation-play-state:running" ></path>
<path d="M2220 433.5 L915.5170676012414 433.5 A15.5 15.5 0 0 1 915.5170676012414 465.5 L2220 465.5" fill="#fff" transform="matrix(1,0,0,1,3.1776154041290283,0)" style="transform:matrix(1, 0, 0, 1, 3.17762, 0);animation-play-state:running" ></path>
<path d="M1990.7993424140982 433.5 L2030.5986848281964 433.5 A15.5 15.5 0 0 1 2030.5986848281964 465.5 L1990.7993424140982 465.5 A15.5 15.5 0 0 1 1990.7993424140982 433.5" fill="#000" transform="matrix(1,0,0,1,-1667.3890380859375,0)" opacity="0.0892851" style="transform:matrix(1, 0, 0, 1, -1667.39, 0);opacity:0.0892851;animation-play-state:running" ></path>
<path d="M2220 464.5 L895.704457267735 464.5 A15.5 15.5 0 0 0 895.704457267735 496.5 L2220 496.5" fill="#fff" transform="matrix(1,0,0,1,-1.5394134521484375,0)" style="transform:matrix(1, 0, 0, 1, -1.53941, 0);animation-play-state:running" ></path>
<path d="M1006.4146340743933 464.5 L1025.4755201673793 464.5 A15.5 15.5 0 0 1 1025.4755201673793 496.5 L1006.4146340743933 496.5 A15.5 15.5 0 0 1 1006.4146340743933 464.5" fill="#fff" transform="matrix(1,0,0,1,0,0)" opacity="0.848214" style="transform:matrix(1, 0, 0, 1, 0, 0);opacity:0.848214;animation-play-state:running" ></path>
<path d="M2220 495.5 L961.9537036609934 495.5 A15.5 15.5 0 0 1 961.9537036609934 527.5 L2220 527.5" fill="#fff" transform="matrix(1,0,0,1,0,0)" style="transform:matrix(1, 0, 0, 1, 0, 0);animation-play-state:running" ></path>
<path d="M1988.3548205510715 495.5 L2025.709641102143 495.5 A15.5 15.5 0 0 1 2025.709641102143 527.5 L1988.3548205510715 527.5 A15.5 15.5 0 0 1 1988.3548205510715 495.5" fill="#000" transform="matrix(1,0,0,1,0,0)" opacity="1" style="transform:matrix(1, 0, 0, 1, 0, 0);animation-play-state:running" ></path>
<path d="M2220 526.5 L915.5415667309203 526.5 A15.5 15.5 0 0 0 915.5415667309203 558.5 L2220 558.5" fill="#fff" transform="matrix(1,0,0,1,-31.62099266052246,0)" style="transform:matrix(1, 0, 0, 1, -31.621, 0);animation-play-state:running" ></path>
<path d="M1044.1258498172458 526.5 L1055.2130516637499 526.5 A15.5 15.5 0 0 1 1055.2130516637499 558.5 L1044.1258498172458 558.5 A15.5 15.5 0 0 1 1044.1258498172458 526.5" fill="#fff" transform="matrix(1,0,0,1,0,0)" opacity="0.580357" style="transform:matrix(1, 0, 0, 1, 0, 0);opacity:0.580357;animation-play-state:running" ></path>
<path d="M2220 557.5 L947.2791588919547 557.5 A15.5 15.5 0 0 1 947.2791588919547 589.5 L2220 589.5" fill="#fff" transform="matrix(1,0,0,1,41.028377532958984,0)" style="transform:matrix(1, 0, 0, 1, 41.0284, 0);animation-play-state:running" ></path>
<path d="M1978.012961681936 557.5 L2005.0259233638722 557.5 A15.5 15.5 0 0 1 2005.0259233638722 589.5 L1978.012961681936 589.5 A15.5 15.5 0 0 1 1978.012961681936 557.5" fill="#000" transform="matrix(1,0,0,1,-122.56564331054688,0)" opacity="1" style="transform:matrix(1, 0, 0, 1, -122.566, 0);animation-play-state:running" ></path>
<path d="M2220 588.5 L915.2859322972052 588.5 A15.5 15.5 0 0 0 915.2859322972052 620.5 L2220 620.5" fill="#fff" transform="matrix(1,0,0,1,-1.0909119844436646,0)" style="transform:matrix(1, 0, 0, 1, -1.09091, 0);animation-play-state:running" ></path>
<path d="M1055.2679957076152 588.5 L1086.7783109254083 588.5 A15.5 15.5 0 0 1 1086.7783109254083 620.5 L1055.2679957076152 620.5 A15.5 15.5 0 0 1 1055.2679957076152 588.5" fill="#fff" transform="matrix(1,0,0,1,0,0)" opacity="0.625" style="transform:matrix(1, 0, 0, 1, 0, 0);opacity:0.625;animation-play-state:running" ></path>
<path d="M2220 619.5 L982.5477919953299 619.5 A15.5 15.5 0 0 1 982.5477919953299 651.5 L2220 651.5" fill="#fff" transform="matrix(1,0,0,1,35.069602966308594,0)" style="transform:matrix(1, 0, 0, 1, 35.0696, 0);animation-play-state:running" ></path>
<path d="M1984.5461741735994 619.5 L2018.0923483471988 619.5 A15.5 15.5 0 0 1 2018.0923483471988 651.5 L1984.5461741735994 651.5 A15.5 15.5 0 0 1 1984.5461741735994 619.5" fill="#000" transform="matrix(1,0,0,1,-1467.969970703125,0)" opacity="0.535714" style="transform:matrix(1, 0, 0, 1, -1467.97, 0);opacity:0.535714;animation-play-state:running" ></path>
<path d="M2220 650.5 L967.8229588262235 650.5 A15.5 15.5 0 0 0 967.8229588262235 682.5 L2220 682.5" fill="#fff" transform="matrix(1,0,0,1,-43.17789840698242,0)" style="transform:matrix(1, 0, 0, 1, -43.1779, 0);animation-play-state:running" ></path>
<path d="M1019.1641082015141 650.5 L1051.4039216043595 650.5 A15.5 15.5 0 0 1 1051.4039216043595 682.5 L1019.1641082015141 682.5 A15.5 15.5 0 0 1 1019.1641082015141 650.5" fill="#fff" transform="matrix(1,0,0,1,0,0)" opacity="0.0446429" style="transform:matrix(1, 0, 0, 1, 0, 0);opacity:0.0446429;animation-play-state:running" ></path>
<path d="M2220 681.5 L998.7645655343354 681.5 A15.5 15.5 0 0 1 998.7645655343354 713.5 L2220 713.5" fill="#fff" transform="matrix(1,0,0,1,33.65247344970703,0)" style="transform:matrix(1, 0, 0, 1, 33.6525, 0);animation-play-state:running" ></path>
<path d="M1985.5319659075574 681.5 L2020.0639318151148 681.5 A15.5 15.5 0 0 1 2020.0639318151148 713.5 L1985.5319659075574 713.5 A15.5 15.5 0 0 1 1985.5319659075574 681.5" fill="#000" transform="matrix(1,0,0,1,-255.97264099121094,0)" opacity="1" style="transform:matrix(1, 0, 0, 1, -255.973, 0);animation-play-state:running" ></path>
<path d="M2220 712.5 L930.3412971951443 712.5 A15.5 15.5 0 0 0 930.3412971951443 744.5 L2220 744.5" fill="#fff" transform="matrix(1,0,0,1,-11.157157897949219,0)" style="transform:matrix(1, 0, 0, 1, -11.1572, 0);animation-play-state:running" ></path>
<path d="M1063.144482900439 712.5 L1094.8989790924159 712.5 A15.5 15.5 0 0 1 1094.8989790924159 744.5 L1063.144482900439 744.5 A15.5 15.5 0 0 1 1063.144482900439 712.5" fill="#fff" transform="matrix(1,0,0,1,0,0)" opacity="0.758928" style="transform:matrix(1, 0, 0, 1, 0, 0);opacity:0.758928;animation-play-state:running" ></path>
<path d="M2220 743.5 L961.7846204209558 743.5 A15.5 15.5 0 0 1 961.7846204209558 775.5 L2220 775.5" fill="#fff" transform="matrix(1,0,0,1,0,0)" style="transform:matrix(1, 0, 0, 1, 0, 0);animation-play-state:running" ></path>
<path d="M1962.6524263086285 743.5 L1974.304852617257 743.5 A15.5 15.5 0 0 1 1974.304852617257 775.5 L1962.6524263086285 775.5 A15.5 15.5 0 0 1 1962.6524263086285 743.5" fill="#000" transform="matrix(1,0,0,1,-577.653564453125,0)" opacity="1" style="transform:matrix(1, 0, 0, 1, -577.654, 0);animation-play-state:running" ></path>
<path d="M2220 774.5 L914.4315002744988 774.5 A15.5 15.5 0 0 0 914.4315002744988 806.5 L2220 806.5" fill="#fff" transform="matrix(1,0,0,1,-8.803548812866211,0)" style="transform:matrix(1, 0, 0, 1, -8.80355, 0);animation-play-state:running" ></path>
<path d="M1064.0507074972115 774.5 L1076.393952058332 774.5 A15.5 15.5 0 0 1 1076.393952058332 806.5 L1064.0507074972115 806.5 A15.5 15.5 0 0 1 1064.0507074972115 774.5" fill="#fff" transform="matrix(1,0,0,1,0,0)" opacity="0.446429" style="transform:matrix(1, 0, 0, 1, 0, 0);opacity:0.446429;animation-play-state:running" ></path>
<path d="M2220 805.5 L975.184055110593 805.5 A15.5 15.5 0 0 1 975.184055110593 837.5 L2220 837.5" fill="#fff" transform="matrix(1,0,0,1,0.8308677673339844,0)" style="transform:matrix(1, 0, 0, 1, 0.830868, 0);animation-play-state:running" ></path>
<path d="M1985.3434124824184 805.5 L2019.686824964837 805.5 A15.5 15.5 0 0 1 2019.686824964837 837.5 L1985.3434124824184 837.5 A15.5 15.5 0 0 1 1985.3434124824184 805.5" fill="#000" transform="matrix(1,0,0,1,-1369.86181640625,0)" opacity="0.178571" style="transform:matrix(1, 0, 0, 1, -1369.86, 0);opacity:0.178571;animation-play-state:running" ></path>
<path d="M2220 836.5 L938.1420699473531 836.5 A15.5 15.5 0 0 0 938.1420699473531 868.5 L2220 868.5" fill="#fff" transform="matrix(1,0,0,1,-0.18418101966381073,0)" style="transform:matrix(1, 0, 0, 1, -0.184181, 0);animation-play-state:running" ></path>
<path d="M1019.5467395451832 836.5 L1039.429137630259 836.5 A15.5 15.5 0 0 1 1039.429137630259 868.5 L1019.5467395451832 868.5 A15.5 15.5 0 0 1 1019.5467395451832 836.5" fill="#fff" transform="matrix(1,0,0,1,0,0)" opacity="0.580356" style="transform:matrix(1, 0, 0, 1, 0, 0);opacity:0.580356;animation-play-state:running" ></path>
<path d="M2220 867.5 L979.8256954336156 867.5 A15.5 15.5 0 0 1 979.8256954336156 899.5 L2220 899.5" fill="#fff" transform="matrix(1,0,0,1,4.052496910095215,0)" style="transform:matrix(1, 0, 0, 1, 4.0525, 0);animation-play-state:running" ></path>
<path d="M1975.1995346122098 867.5 L1999.3990692244197 867.5 A15.5 15.5 0 0 1 1999.3990692244197 899.5 L1975.1995346122098 899.5 A15.5 15.5 0 0 1 1975.1995346122098 867.5" fill="#000" transform="matrix(1,0,0,1,-1388.7733154296875,0)" opacity="0.535714" style="transform:matrix(1, 0, 0, 1, -1388.77, 0);opacity:0.535714;animation-play-state:running" ></path>
<path d="M2220 898.5 L956.8210096280229 898.5 A15.5 15.5 0 0 0 956.8210096280229 930.5 L2220 930.5" fill="#fff" transform="matrix(1,0,0,1,-10.320369720458984,0)" style="transform:matrix(1, 0, 0, 1, -10.3204, 0);animation-play-state:running" ></path>
<path d="M1010.7511030800056 898.5 L1024.6425985677656 898.5 A15.5 15.5 0 0 1 1024.6425985677656 930.5 L1010.7511030800056 930.5 A15.5 15.5 0 0 1 1010.7511030800056 898.5" fill="#fff" transform="matrix(1,0,0,1,0,0)" opacity="1" style="transform:matrix(1, 0, 0, 1, 0, 0);animation-play-state:running" ></path>
<path d="M2220 929.5 L969.5990943034096 929.5 A15.5 15.5 0 0 1 969.5990943034096 961.5 L2220 961.5" fill="#fff" transform="matrix(1,0,0,1,2.9067111015319824,0)" style="transform:matrix(1, 0, 0, 1, 2.90671, 0);animation-play-state:running" ></path>
<path d="M1978.9984182559258 929.5 L2006.9968365118516 929.5 A15.5 15.5 0 0 1 2006.9968365118516 961.5 L1978.9984182559258 961.5 A15.5 15.5 0 0 1 1978.9984182559258 929.5" fill="#000" transform="matrix(1,0,0,1,-1425.7249755859375,0)" opacity="0.267857" style="transform:matrix(1, 0, 0, 1, -1425.72, 0);opacity:0.267857;animation-play-state:running" ></path>
<path d="M2220 960.5 L908.4792126616635 960.5 A15.5 15.5 0 0 0 908.4792126616635 992.5 L2220 992.5" fill="#fff" transform="matrix(1,0,0,1,-18.589162826538086,0)" style="transform:matrix(1, 0, 0, 1, -18.5892, 0);animation-play-state:running" ></path>
<path d="M1052.759812060531 960.5 L1082.3343639399836 960.5 A15.5 15.5 0 0 1 1082.3343639399836 992.5 L1052.759812060531 992.5 A15.5 15.5 0 0 1 1052.759812060531 960.5" fill="#fff" transform="matrix(1,0,0,1,0,0)" opacity="0.133929" style="transform:matrix(1, 0, 0, 1, 0, 0);opacity:0.133929;animation-play-state:running" ></path></g></mask></defs>


<rect x="0" y="0" width="1920" height="969" fill="url(#ldbk-photon-iu7t3tapbor-lg)" mask="url(#ldbk-photon-iu7t3tapbor-mask)" style="animation-play-state:running" ></rect></g></svg>