<svg xmlns="http://www.w3.org/2000/svg" xmlns:xlink="http://www.w3.org/1999/xlink" style="margin:auto;background:#f1f2f3;display:block;z-index:1;position:relative" width="2138" height="1012" preserveAspectRatio="xMidYMid" viewBox="0 0 2138 1012">
    <g transform="translate(1069,506) scale(1,1) translate(-1069,-506)"><defs>
      <linearGradient id="ldbk-photon-p8vf02zzua-lg" x1="997.52" x2="2138" y1="0" y2="0" gradientUnits="userSpaceOnUse">
        <stop stop-color="#93dbe9" offset="0"></stop>
        <stop stop-color="#689cc5" offset="1"></stop>
      </linearGradient>
      <mask id="ldbk-photon-p8vf02zzua-mask">
      <g><path d="M2438 -0.5 L1269.1968758448784 -0.5 A14.5 14.5 0 0 1 1269.1968758448784 29.5 L2438 29.5" fill="#fff">
      <animateTransform attributeName="transform" type="translate" dur="6.25s" repeatCount="indefinite" keyTimes="0;0.5;1" calcMode="spline" keySplines="0.5 0 0.5 1;0.5 0 0.5 1" values="138.32445579032475;0;138.32445579032475" begin="0s"></animateTransform>
    </path><path d="M2183.288244774487 -0.5 L2199.5764895489738 -0.5 A14.5 14.5 0 0 1 2199.5764895489738 29.5 L2183.288244774487 29.5 A14.5 14.5 0 0 1 2183.288244774487 -0.5" fill="#000">
      <animateTransform attributeName="transform" type="translate" dur="6.25s" repeatCount="indefinite" keyTimes="0;1" values="0;-1480.0058433952445" begin="0s"></animateTransform>
      <animate attributeName="opacity" dur="6.25s" repeatCount="indefinite" keyTimes="0;0.3;1" values="1;1;0" begin="0s"></animate>
    </path><path d="M2438 28.5 L992.4079679386805 28.5 A14.5 14.5 0 0 0 992.4079679386805 58.5 L2438 58.5" fill="#fff">
      <animateTransform attributeName="transform" type="translate" dur="6.25s" repeatCount="indefinite" keyTimes="0;0.5;1" calcMode="spline" keySplines="0.5 0 0.5 1;0.5 0 0.5 1" values="-102.48417522956099;0;-102.48417522956099" begin="-1.0714285714285714s"></animateTransform>
    </path><path d="M1082.101823867119 28.5 L1104.0566373041643 28.5 A14.5 14.5 0 0 1 1104.0566373041643 58.5 L1082.101823867119 58.5 A14.5 14.5 0 0 1 1082.101823867119 28.5" fill="#fff">
      <animateTransform attributeName="transform" type="translate" dur="6.25s" repeatCount="indefinite" keyTimes="0;1" values="0;0" begin="-1.0714285714285714s"></animateTransform>
      <animate attributeName="opacity" dur="6.25s" repeatCount="indefinite" keyTimes="0;0.3;1" values="1;1;0" begin="-1.0714285714285714s"></animate>
    </path><path d="M2438 57.5 L1227.206507417447 57.5 A14.5 14.5 0 0 1 1227.206507417447 87.5 L2438 87.5" fill="#fff">
      <animateTransform attributeName="transform" type="translate" dur="12.5s" repeatCount="indefinite" keyTimes="0;0.5;1" calcMode="spline" keySplines="0.5 0 0.5 1;0.5 0 0.5 1" values="155.85290731325057;0;155.85290731325057" begin="-2.142857142857143s"></animateTransform>
    </path><path d="M2197.261461641164 57.5 L2227.5229232823276 57.5 A14.5 14.5 0 0 1 2227.5229232823276 87.5 L2197.261461641164 87.5 A14.5 14.5 0 0 1 2197.261461641164 57.5" fill="#000">
      <animateTransform attributeName="transform" type="translate" dur="6.25s" repeatCount="indefinite" keyTimes="0;1" values="0;-1909.3304392967639" begin="-2.142857142857143s"></animateTransform>
      <animate attributeName="opacity" dur="6.25s" repeatCount="indefinite" keyTimes="0;0.3;1" values="1;1;0" begin="-2.142857142857143s"></animate>
    </path><path d="M2438 86.5 L1013.8024891866687 86.5 A14.5 14.5 0 0 0 1013.8024891866687 116.5 L2438 116.5" fill="#fff">
      <animateTransform attributeName="transform" type="translate" dur="6.25s" repeatCount="indefinite" keyTimes="0;0.5;1" calcMode="spline" keySplines="0.5 0 0.5 1;0.5 0 0.5 1" values="-91.08138050913306;0;-91.08138050913306" begin="-3.214285714285714s"></animateTransform>
    </path><path d="M1088.3268613111466 86.5 L1114.2743511866086 86.5 A14.5 14.5 0 0 1 1114.2743511866086 116.5 L1088.3268613111466 116.5 A14.5 14.5 0 0 1 1088.3268613111466 86.5" fill="#fff">
      <animateTransform attributeName="transform" type="translate" dur="12.5s" repeatCount="indefinite" keyTimes="0;1" values="0;0" begin="-3.214285714285714s"></animateTransform>
      <animate attributeName="opacity" dur="12.5s" repeatCount="indefinite" keyTimes="0;0.3;1" values="1;1;0" begin="-3.214285714285714s"></animate>
    </path><path d="M2438 115.5 L1195.7638936643502 115.5 A14.5 14.5 0 0 1 1195.7638936643502 145.5 L2438 145.5" fill="#fff">
      <animateTransform attributeName="transform" type="translate" dur="12.5s" repeatCount="indefinite" keyTimes="0;0.5;1" calcMode="spline" keySplines="0.5 0 0.5 1;0.5 0 0.5 1" values="97.44819102379807;0;97.44819102379807" begin="-4.285714285714286s"></animateTransform>
    </path><path d="M2183.266210674816 115.5 L2199.5324213496324 115.5 A14.5 14.5 0 0 1 2199.5324213496324 145.5 L2183.266210674816 145.5 A14.5 14.5 0 0 1 2183.266210674816 115.5" fill="#000">
      <animateTransform attributeName="transform" type="translate" dur="12.5s" repeatCount="indefinite" keyTimes="0;1" values="0;-1904.769173256235" begin="-4.285714285714286s"></animateTransform>
      <animate attributeName="opacity" dur="12.5s" repeatCount="indefinite" keyTimes="0;0.3;1" values="1;1;0" begin="-4.285714285714286s"></animate>
    </path><path d="M2438 144.5 L1083.067309772564 144.5 A14.5 14.5 0 0 0 1083.067309772564 174.5 L2438 174.5" fill="#fff">
      <animateTransform attributeName="transform" type="translate" dur="4.166666666666667s" repeatCount="indefinite" keyTimes="0;0.5;1" calcMode="spline" keySplines="0.5 0 0.5 1;0.5 0 0.5 1" values="-149.32902962058165;0;-149.32902962058165" begin="-5.357142857142857s"></animateTransform>
    </path><path d="M1160.6758950938247 144.5 L1181.1066335631433 144.5 A14.5 14.5 0 0 1 1181.1066335631433 174.5 L1160.6758950938247 174.5 A14.5 14.5 0 0 1 1160.6758950938247 144.5" fill="#fff">
      <animateTransform attributeName="transform" type="translate" dur="6.25s" repeatCount="indefinite" keyTimes="0;1" values="0;0" begin="-5.357142857142857s"></animateTransform>
      <animate attributeName="opacity" dur="6.25s" repeatCount="indefinite" keyTimes="0;0.3;1" values="1;1;0" begin="-5.357142857142857s"></animate>
    </path><path d="M2438 173.5 L1130.946280997056 173.5 A14.5 14.5 0 0 1 1130.946280997056 203.5 L2438 203.5" fill="#fff">
      <animateTransform attributeName="transform" type="translate" dur="12.5s" repeatCount="indefinite" keyTimes="0;0.5;1" calcMode="spline" keySplines="0.5 0 0.5 1;0.5 0 0.5 1" values="135.14711139126652;0;135.14711139126652" begin="-6.428571428571428s"></animateTransform>
    </path><path d="M2190.5334015705002 173.5 L2214.0668031410005 173.5 A14.5 14.5 0 0 1 2214.0668031410005 203.5 L2190.5334015705002 203.5 A14.5 14.5 0 0 1 2190.5334015705002 173.5" fill="#000">
      <animateTransform attributeName="transform" type="translate" dur="4.166666666666667s" repeatCount="indefinite" keyTimes="0;1" values="0;-2269.514498894164" begin="-6.428571428571428s"></animateTransform>
      <animate attributeName="opacity" dur="4.166666666666667s" repeatCount="indefinite" keyTimes="0;0.3;1" values="1;1;0" begin="-6.428571428571428s"></animate>
    </path><path d="M2438 202.5 L1021.2002623777423 202.5 A14.5 14.5 0 0 0 1021.2002623777423 232.5 L2438 232.5" fill="#fff">
      <animateTransform attributeName="transform" type="translate" dur="4.166666666666667s" repeatCount="indefinite" keyTimes="0;0.5;1" calcMode="spline" keySplines="0.5 0 0.5 1;0.5 0 0.5 1" values="-179.51590674732847;0;-179.51590674732847" begin="-7.500000000000001s"></animateTransform>
    </path><path d="M1094.5361765563619 202.5 L1113.0481294456476 202.5 A14.5 14.5 0 0 1 1113.0481294456476 232.5 L1094.5361765563619 232.5 A14.5 14.5 0 0 1 1094.5361765563619 202.5" fill="#fff">
      <animateTransform attributeName="transform" type="translate" dur="6.25s" repeatCount="indefinite" keyTimes="0;1" values="0;0" begin="-7.500000000000001s"></animateTransform>
      <animate attributeName="opacity" dur="6.25s" repeatCount="indefinite" keyTimes="0;0.3;1" values="1;1;0" begin="-7.500000000000001s"></animate>
    </path><path d="M2438 231.5 L1200.8765730694063 231.5 A14.5 14.5 0 0 1 1200.8765730694063 261.5 L2438 261.5" fill="#fff">
      <animateTransform attributeName="transform" type="translate" dur="6.25s" repeatCount="indefinite" keyTimes="0;0.5;1" calcMode="spline" keySplines="0.5 0 0.5 1;0.5 0 0.5 1" values="96.54602592126527;0;96.54602592126527" begin="-8.571428571428571s"></animateTransform>
    </path><path d="M2192.4128001313843 231.5 L2217.8256002627686 231.5 A14.5 14.5 0 0 1 2217.8256002627686 261.5 L2192.4128001313843 261.5 A14.5 14.5 0 0 1 2192.4128001313843 231.5" fill="#000">
      <animateTransform attributeName="transform" type="translate" dur="6.25s" repeatCount="indefinite" keyTimes="0;1" values="0;-1755.7918347171724" begin="-8.571428571428571s"></animateTransform>
      <animate attributeName="opacity" dur="6.25s" repeatCount="indefinite" keyTimes="0;0.3;1" values="1;1;0" begin="-8.571428571428571s"></animate>
    </path><path d="M2438 260.5 L974.4969093233474 260.5 A14.5 14.5 0 0 0 974.4969093233474 290.5 L2438 290.5" fill="#fff">
      <animateTransform attributeName="transform" type="translate" dur="6.25s" repeatCount="indefinite" keyTimes="0;0.5;1" calcMode="spline" keySplines="0.5 0 0.5 1;0.5 0 0.5 1" values="-123.02621427722644;0;-123.02621427722644" begin="-9.642857142857142s"></animateTransform>
    </path><path d="M1121.4185294982574 260.5 L1132.880313560115 260.5 A14.5 14.5 0 0 1 1132.880313560115 290.5 L1121.4185294982574 290.5 A14.5 14.5 0 0 1 1121.4185294982574 260.5" fill="#fff">
      <animateTransform attributeName="transform" type="translate" dur="12.5s" repeatCount="indefinite" keyTimes="0;1" values="0;0" begin="-9.642857142857142s"></animateTransform>
      <animate attributeName="opacity" dur="12.5s" repeatCount="indefinite" keyTimes="0;0.3;1" values="1;1;0" begin="-9.642857142857142s"></animate>
    </path><path d="M2438 289.5 L1140.6809304425642 289.5 A14.5 14.5 0 0 1 1140.6809304425642 319.5 L2438 319.5" fill="#fff">
      <animateTransform attributeName="transform" type="translate" dur="4.166666666666667s" repeatCount="indefinite" keyTimes="0;0.5;1" calcMode="spline" keySplines="0.5 0 0.5 1;0.5 0 0.5 1" values="150.3823304171605;0;150.3823304171605" begin="-10.714285714285714s"></animateTransform>
    </path><path d="M2180.733855885003 289.5 L2194.4677117700057 289.5 A14.5 14.5 0 0 1 2194.4677117700057 319.5 L2180.733855885003 319.5 A14.5 14.5 0 0 1 2180.733855885003 289.5" fill="#000">
      <animateTransform attributeName="transform" type="translate" dur="6.25s" repeatCount="indefinite" keyTimes="0;1" values="0;-2155.5390125491135" begin="-10.714285714285714s"></animateTransform>
      <animate attributeName="opacity" dur="6.25s" repeatCount="indefinite" keyTimes="0;0.3;1" values="1;1;0" begin="-10.714285714285714s"></animate>
    </path><path d="M2438 318.5 L993.4978956640948 318.5 A14.5 14.5 0 0 0 993.4978956640948 348.5 L2438 348.5" fill="#fff">
      <animateTransform attributeName="transform" type="translate" dur="4.166666666666667s" repeatCount="indefinite" keyTimes="0;0.5;1" calcMode="spline" keySplines="0.5 0 0.5 1;0.5 0 0.5 1" values="-122.12123002824259;0;-122.12123002824259" begin="-11.785714285714285s"></animateTransform>
    </path><path d="M1069.0362314346967 318.5 L1106.4556401283144 318.5 A14.5 14.5 0 0 1 1106.4556401283144 348.5 L1069.0362314346967 348.5 A14.5 14.5 0 0 1 1069.0362314346967 318.5" fill="#fff">
      <animateTransform attributeName="transform" type="translate" dur="12.5s" repeatCount="indefinite" keyTimes="0;1" values="0;0" begin="-11.785714285714285s"></animateTransform>
      <animate attributeName="opacity" dur="12.5s" repeatCount="indefinite" keyTimes="0;0.3;1" values="1;1;0" begin="-11.785714285714285s"></animate>
    </path><path d="M2438 347.5 L1150.3042179564177 347.5 A14.5 14.5 0 0 1 1150.3042179564177 377.5 L2438 377.5" fill="#fff">
      <animateTransform attributeName="transform" type="translate" dur="6.25s" repeatCount="indefinite" keyTimes="0;0.5;1" calcMode="spline" keySplines="0.5 0 0.5 1;0.5 0 0.5 1" values="133.91570205068297;0;133.91570205068297" begin="-12.857142857142856s"></animateTransform>
    </path><path d="M2187.075798029293 347.5 L2207.1515960585857 347.5 A14.5 14.5 0 0 1 2207.1515960585857 377.5 L2187.075798029293 377.5 A14.5 14.5 0 0 1 2187.075798029293 347.5" fill="#000">
      <animateTransform attributeName="transform" type="translate" dur="4.166666666666667s" repeatCount="indefinite" keyTimes="0;1" values="0;-2128.681065053411" begin="-12.857142857142856s"></animateTransform>
      <animate attributeName="opacity" dur="4.166666666666667s" repeatCount="indefinite" keyTimes="0;0.3;1" values="1;1;0" begin="-12.857142857142856s"></animate>
    </path><path d="M2438 376.5 L1009.1988427798981 376.5 A14.5 14.5 0 0 0 1009.1988427798981 406.5 L2438 406.5" fill="#fff">
      <animateTransform attributeName="transform" type="translate" dur="12.5s" repeatCount="indefinite" keyTimes="0;0.5;1" calcMode="spline" keySplines="0.5 0 0.5 1;0.5 0 0.5 1" values="-107.33798484420066;0;-107.33798484420066" begin="-13.928571428571429s"></animateTransform>
    </path><path d="M1064.9068406987851 376.5 L1089.3832152455811 376.5 A14.5 14.5 0 0 1 1089.3832152455811 406.5 L1064.9068406987851 406.5 A14.5 14.5 0 0 1 1064.9068406987851 376.5" fill="#fff">
      <animateTransform attributeName="transform" type="translate" dur="6.25s" repeatCount="indefinite" keyTimes="0;1" values="0;0" begin="-13.928571428571429s"></animateTransform>
      <animate attributeName="opacity" dur="6.25s" repeatCount="indefinite" keyTimes="0;0.3;1" values="1;1;0" begin="-13.928571428571429s"></animate>
    </path><path d="M2438 405.5 L1193.4601304174626 405.5 A14.5 14.5 0 0 1 1193.4601304174626 435.5 L2438 435.5" fill="#fff">
      <animateTransform attributeName="transform" type="translate" dur="4.166666666666667s" repeatCount="indefinite" keyTimes="0;0.5;1" calcMode="spline" keySplines="0.5 0 0.5 1;0.5 0 0.5 1" values="178.13958075141937;0;178.13958075141937" begin="-15.000000000000002s"></animateTransform>
    </path><path d="M2197.196309208321 405.5 L2227.392618416642 405.5 A14.5 14.5 0 0 1 2227.392618416642 435.5 L2197.196309208321 435.5 A14.5 14.5 0 0 1 2197.196309208321 405.5" fill="#000">
      <animateTransform attributeName="transform" type="translate" dur="4.166666666666667s" repeatCount="indefinite" keyTimes="0;1" values="0;-1511.6247826934507" begin="-15.000000000000002s"></animateTransform>
      <animate attributeName="opacity" dur="4.166666666666667s" repeatCount="indefinite" keyTimes="0;0.3;1" values="1;1;0" begin="-15.000000000000002s"></animate>
    </path><path d="M2438 434.5 L978.1279931738613 434.5 A14.5 14.5 0 0 0 978.1279931738613 464.5 L2438 464.5" fill="#fff">
      <animateTransform attributeName="transform" type="translate" dur="4.166666666666667s" repeatCount="indefinite" keyTimes="0;0.5;1" calcMode="spline" keySplines="0.5 0 0.5 1;0.5 0 0.5 1" values="-164.54222129532468;0;-164.54222129532468" begin="-16.07142857142857s"></animateTransform>
    </path><path d="M1037.4770104926724 434.5 L1077.3852865393687 434.5 A14.5 14.5 0 0 1 1077.3852865393687 464.5 L1037.4770104926724 464.5 A14.5 14.5 0 0 1 1037.4770104926724 434.5" fill="#fff">
      <animateTransform attributeName="transform" type="translate" dur="6.25s" repeatCount="indefinite" keyTimes="0;1" values="0;0" begin="-16.07142857142857s"></animateTransform>
      <animate attributeName="opacity" dur="6.25s" repeatCount="indefinite" keyTimes="0;0.3;1" values="1;1;0" begin="-16.07142857142857s"></animate>
    </path><path d="M2438 463.5 L1218.3971527647045 463.5 A14.5 14.5 0 0 1 1218.3971527647045 493.5 L2438 493.5" fill="#fff">
      <animateTransform attributeName="transform" type="translate" dur="12.5s" repeatCount="indefinite" keyTimes="0;0.5;1" calcMode="spline" keySplines="0.5 0 0.5 1;0.5 0 0.5 1" values="114.07436817421977;0;114.07436817421977" begin="-17.142857142857142s"></animateTransform>
    </path><path d="M2177.7248022309427 463.5 L2188.4496044618854 463.5 A14.5 14.5 0 0 1 2188.4496044618854 493.5 L2177.7248022309427 493.5 A14.5 14.5 0 0 1 2177.7248022309427 463.5" fill="#000">
      <animateTransform attributeName="transform" type="translate" dur="6.25s" repeatCount="indefinite" keyTimes="0;1" values="0;-2357.86527552986" begin="-17.142857142857142s"></animateTransform>
      <animate attributeName="opacity" dur="6.25s" repeatCount="indefinite" keyTimes="0;0.3;1" values="1;1;0" begin="-17.142857142857142s"></animate>
    </path><path d="M2438 492.5 L1107.706353443065 492.5 A14.5 14.5 0 0 0 1107.706353443065 522.5 L2438 522.5" fill="#fff">
      <animateTransform attributeName="transform" type="translate" dur="6.25s" repeatCount="indefinite" keyTimes="0;0.5;1" calcMode="spline" keySplines="0.5 0 0.5 1;0.5 0 0.5 1" values="-92.5532978409417;0;-92.5532978409417" begin="-18.21428571428571s"></animateTransform>
    </path><path d="M1191.4499559713095 492.5 L1230.5447982230155 492.5 A14.5 14.5 0 0 1 1230.5447982230155 522.5 L1191.4499559713095 522.5 A14.5 14.5 0 0 1 1191.4499559713095 492.5" fill="#fff">
      <animateTransform attributeName="transform" type="translate" dur="12.5s" repeatCount="indefinite" keyTimes="0;1" values="0;0" begin="-18.21428571428571s"></animateTransform>
      <animate attributeName="opacity" dur="12.5s" repeatCount="indefinite" keyTimes="0;0.3;1" values="1;1;0" begin="-18.21428571428571s"></animate>
    </path><path d="M2438 521.5 L1147.3125162031806 521.5 A14.5 14.5 0 0 1 1147.3125162031806 551.5 L2438 551.5" fill="#fff">
      <animateTransform attributeName="transform" type="translate" dur="6.25s" repeatCount="indefinite" keyTimes="0;0.5;1" calcMode="spline" keySplines="0.5 0 0.5 1;0.5 0 0.5 1" values="104.92395635383676;0;104.92395635383676" begin="-19.285714285714285s"></animateTransform>
    </path><path d="M2179.398156233325 521.5 L2191.7963124666503 521.5 A14.5 14.5 0 0 1 2191.7963124666503 551.5 L2179.398156233325 551.5 A14.5 14.5 0 0 1 2179.398156233325 521.5" fill="#000">
      <animateTransform attributeName="transform" type="translate" dur="12.5s" repeatCount="indefinite" keyTimes="0;1" values="0;-1695.7786327860313" begin="-19.285714285714285s"></animateTransform>
      <animate attributeName="opacity" dur="12.5s" repeatCount="indefinite" keyTimes="0;0.3;1" values="1;1;0" begin="-19.285714285714285s"></animate>
    </path><path d="M2438 550.5 L1083.8317709877888 550.5 A14.5 14.5 0 0 0 1083.8317709877888 580.5 L2438 580.5" fill="#fff">
      <animateTransform attributeName="transform" type="translate" dur="12.5s" repeatCount="indefinite" keyTimes="0;0.5;1" calcMode="spline" keySplines="0.5 0 0.5 1;0.5 0 0.5 1" values="-174.38961197310738;0;-174.38961197310738" begin="-20.357142857142858s"></animateTransform>
    </path><path d="M1217.6511513950682 550.5 L1254.6749641130868 550.5 A14.5 14.5 0 0 1 1254.6749641130868 580.5 L1217.6511513950682 580.5 A14.5 14.5 0 0 1 1217.6511513950682 550.5" fill="#fff">
      <animateTransform attributeName="transform" type="translate" dur="12.5s" repeatCount="indefinite" keyTimes="0;1" values="0;0" begin="-20.357142857142858s"></animateTransform>
      <animate attributeName="opacity" dur="12.5s" repeatCount="indefinite" keyTimes="0;0.3;1" values="1;1;0" begin="-20.357142857142858s"></animate>
    </path><path d="M2438 579.5 L1241.3681531777816 579.5 A14.5 14.5 0 0 1 1241.3681531777816 609.5 L2438 609.5" fill="#fff">
      <animateTransform attributeName="transform" type="translate" dur="4.166666666666667s" repeatCount="indefinite" keyTimes="0;0.5;1" calcMode="spline" keySplines="0.5 0 0.5 1;0.5 0 0.5 1" values="130.22269800217344;0;130.22269800217344" begin="-21.428571428571427s"></animateTransform>
    </path><path d="M2206.2788642436517 579.5 L2245.5577284873034 579.5 A14.5 14.5 0 0 1 2245.5577284873034 609.5 L2206.2788642436517 609.5 A14.5 14.5 0 0 1 2206.2788642436517 579.5" fill="#000">
      <animateTransform attributeName="transform" type="translate" dur="6.25s" repeatCount="indefinite" keyTimes="0;1" values="0;-1556.4692641037047" begin="-21.428571428571427s"></animateTransform>
      <animate attributeName="opacity" dur="6.25s" repeatCount="indefinite" keyTimes="0;0.3;1" values="1;1;0" begin="-21.428571428571427s"></animate>
    </path><path d="M2438 608.5 L978.315052877145 608.5 A14.5 14.5 0 0 0 978.315052877145 638.5 L2438 638.5" fill="#fff">
      <animateTransform attributeName="transform" type="translate" dur="6.25s" repeatCount="indefinite" keyTimes="0;0.5;1" calcMode="spline" keySplines="0.5 0 0.5 1;0.5 0 0.5 1" values="-123.88798236136279;0;-123.88798236136279" begin="-22.499999999999996s"></animateTransform>
    </path><path d="M1090.010170904791 608.5 L1103.879384193579 608.5 A14.5 14.5 0 0 1 1103.879384193579 638.5 L1090.010170904791 638.5 A14.5 14.5 0 0 1 1090.010170904791 608.5" fill="#fff">
      <animateTransform attributeName="transform" type="translate" dur="4.166666666666667s" repeatCount="indefinite" keyTimes="0;1" values="0;0" begin="-22.499999999999996s"></animateTransform>
      <animate attributeName="opacity" dur="4.166666666666667s" repeatCount="indefinite" keyTimes="0;0.3;1" values="1;1;0" begin="-22.499999999999996s"></animate>
    </path><path d="M2438 637.5 L1309.0318785918996 637.5 A14.5 14.5 0 0 1 1309.0318785918996 667.5 L2438 667.5" fill="#fff">
      <animateTransform attributeName="transform" type="translate" dur="12.5s" repeatCount="indefinite" keyTimes="0;0.5;1" calcMode="spline" keySplines="0.5 0 0.5 1;0.5 0 0.5 1" values="128.5194557325015;0;128.5194557325015" begin="-23.57142857142857s"></animateTransform>
    </path><path d="M2206.8808044065936 637.5 L2246.761608813187 637.5 A14.5 14.5 0 0 1 2246.761608813187 667.5 L2206.8808044065936 667.5 A14.5 14.5 0 0 1 2206.8808044065936 637.5" fill="#000">
      <animateTransform attributeName="transform" type="translate" dur="4.166666666666667s" repeatCount="indefinite" keyTimes="0;1" values="0;-1917.1469923277168" begin="-23.57142857142857s"></animateTransform>
      <animate attributeName="opacity" dur="4.166666666666667s" repeatCount="indefinite" keyTimes="0;0.3;1" values="1;1;0" begin="-23.57142857142857s"></animate>
    </path><path d="M2438 666.5 L1049.839216535545 666.5 A14.5 14.5 0 0 0 1049.839216535545 696.5 L2438 696.5" fill="#fff">
      <animateTransform attributeName="transform" type="translate" dur="12.5s" repeatCount="indefinite" keyTimes="0;0.5;1" calcMode="spline" keySplines="0.5 0 0.5 1;0.5 0 0.5 1" values="-161.76293288842945;0;-161.76293288842945" begin="-24.642857142857146s"></animateTransform>
    </path><path d="M1109.0059611946049 666.5 L1143.0184451326975 666.5 A14.5 14.5 0 0 1 1143.0184451326975 696.5 L1109.0059611946049 696.5 A14.5 14.5 0 0 1 1109.0059611946049 666.5" fill="#fff">
      <animateTransform attributeName="transform" type="translate" dur="6.25s" repeatCount="indefinite" keyTimes="0;1" values="0;0" begin="-24.642857142857146s"></animateTransform>
      <animate attributeName="opacity" dur="6.25s" repeatCount="indefinite" keyTimes="0;0.3;1" values="1;1;0" begin="-24.642857142857146s"></animate>
    </path><path d="M2438 695.5 L1203.7625788495718 695.5 A14.5 14.5 0 0 1 1203.7625788495718 725.5 L2438 725.5" fill="#fff">
      <animateTransform attributeName="transform" type="translate" dur="4.166666666666667s" repeatCount="indefinite" keyTimes="0;0.5;1" calcMode="spline" keySplines="0.5 0 0.5 1;0.5 0 0.5 1" values="123.96641517698279;0;123.96641517698279" begin="-25.71428571428571s"></animateTransform>
    </path><path d="M2188.366514730651 695.5 L2209.733029461302 695.5 A14.5 14.5 0 0 1 2209.733029461302 725.5 L2188.366514730651 725.5 A14.5 14.5 0 0 1 2188.366514730651 695.5" fill="#000">
      <animateTransform attributeName="transform" type="translate" dur="6.25s" repeatCount="indefinite" keyTimes="0;1" values="0;-1506.8624327162881" begin="-25.71428571428571s"></animateTransform>
      <animate attributeName="opacity" dur="6.25s" repeatCount="indefinite" keyTimes="0;0.3;1" values="1;1;0" begin="-25.71428571428571s"></animate>
    </path><path d="M2438 724.5 L1089.3454995805691 724.5 A14.5 14.5 0 0 0 1089.3454995805691 754.5 L2438 754.5" fill="#fff">
      <animateTransform attributeName="transform" type="translate" dur="12.5s" repeatCount="indefinite" keyTimes="0;0.5;1" calcMode="spline" keySplines="0.5 0 0.5 1;0.5 0 0.5 1" values="-176.07174262183096;0;-176.07174262183096" begin="-26.785714285714285s"></animateTransform>
    </path><path d="M1193.4496410885436 724.5 L1226.159441792742 724.5 A14.5 14.5 0 0 1 1226.159441792742 754.5 L1193.4496410885436 754.5 A14.5 14.5 0 0 1 1193.4496410885436 724.5" fill="#fff">
      <animateTransform attributeName="transform" type="translate" dur="4.166666666666667s" repeatCount="indefinite" keyTimes="0;1" values="0;0" begin="-26.785714285714285s"></animateTransform>
      <animate attributeName="opacity" dur="4.166666666666667s" repeatCount="indefinite" keyTimes="0;0.3;1" values="1;1;0" begin="-26.785714285714285s"></animate>
    </path><path d="M2438 753.5 L1295.816820951912 753.5 A14.5 14.5 0 0 1 1295.816820951912 783.5 L2438 783.5" fill="#fff">
      <animateTransform attributeName="transform" type="translate" dur="12.5s" repeatCount="indefinite" keyTimes="0;0.5;1" calcMode="spline" keySplines="0.5 0 0.5 1;0.5 0 0.5 1" values="99.09513218483073;0;99.09513218483073" begin="-27.857142857142858s"></animateTransform>
    </path><path d="M2202.150778330919 753.5 L2237.301556661838 753.5 A14.5 14.5 0 0 1 2237.301556661838 783.5 L2202.150778330919 783.5 A14.5 14.5 0 0 1 2202.150778330919 753.5" fill="#000">
      <animateTransform attributeName="transform" type="translate" dur="6.25s" repeatCount="indefinite" keyTimes="0;1" values="0;-1531.893094979685" begin="-27.857142857142858s"></animateTransform>
      <animate attributeName="opacity" dur="6.25s" repeatCount="indefinite" keyTimes="0;0.3;1" values="1;1;0" begin="-27.857142857142858s"></animate>
    </path><path d="M2438 782.5 L1060.5169543828822 782.5 A14.5 14.5 0 0 0 1060.5169543828822 812.5 L2438 812.5" fill="#fff">
      <animateTransform attributeName="transform" type="translate" dur="4.166666666666667s" repeatCount="indefinite" keyTimes="0;0.5;1" calcMode="spline" keySplines="0.5 0 0.5 1;0.5 0 0.5 1" values="-139.87721701997114;0;-139.87721701997114" begin="-28.92857142857143s"></animateTransform>
    </path><path d="M1185.3905259295996 782.5 L1209.4896419410677 782.5 A14.5 14.5 0 0 1 1209.4896419410677 812.5 L1185.3905259295996 812.5 A14.5 14.5 0 0 1 1185.3905259295996 782.5" fill="#fff">
      <animateTransform attributeName="transform" type="translate" dur="4.166666666666667s" repeatCount="indefinite" keyTimes="0;1" values="0;0" begin="-28.92857142857143s"></animateTransform>
      <animate attributeName="opacity" dur="4.166666666666667s" repeatCount="indefinite" keyTimes="0;0.3;1" values="1;1;0" begin="-28.92857142857143s"></animate>
    </path><path d="M2438 811.5 L1291.5388178986318 811.5 A14.5 14.5 0 0 1 1291.5388178986318 841.5 L2438 841.5" fill="#fff">
      <animateTransform attributeName="transform" type="translate" dur="6.25s" repeatCount="indefinite" keyTimes="0;0.5;1" calcMode="spline" keySplines="0.5 0 0.5 1;0.5 0 0.5 1" values="155.09391552706336;0;155.09391552706336" begin="-30.000000000000004s"></animateTransform>
    </path><path d="M2205.7430689038374 811.5 L2244.486137807675 811.5 A14.5 14.5 0 0 1 2244.486137807675 841.5 L2205.7430689038374 841.5 A14.5 14.5 0 0 1 2205.7430689038374 811.5" fill="#000">
      <animateTransform attributeName="transform" type="translate" dur="6.25s" repeatCount="indefinite" keyTimes="0;1" values="0;-1675.8538878716922" begin="-30.000000000000004s"></animateTransform>
      <animate attributeName="opacity" dur="6.25s" repeatCount="indefinite" keyTimes="0;0.3;1" values="1;1;0" begin="-30.000000000000004s"></animate>
    </path><path d="M2438 840.5 L1030.8298119674394 840.5 A14.5 14.5 0 0 0 1030.8298119674394 870.5 L2438 870.5" fill="#fff">
      <animateTransform attributeName="transform" type="translate" dur="12.5s" repeatCount="indefinite" keyTimes="0;0.5;1" calcMode="spline" keySplines="0.5 0 0.5 1;0.5 0 0.5 1" values="-168.92496923247103;0;-168.92496923247103" begin="-31.071428571428573s"></animateTransform>
    </path><path d="M1178.3507868653548 840.5 L1197.5750829796334 840.5 A14.5 14.5 0 0 1 1197.5750829796334 870.5 L1178.3507868653548 870.5 A14.5 14.5 0 0 1 1178.3507868653548 840.5" fill="#fff">
      <animateTransform attributeName="transform" type="translate" dur="12.5s" repeatCount="indefinite" keyTimes="0;1" values="0;0" begin="-31.071428571428573s"></animateTransform>
      <animate attributeName="opacity" dur="12.5s" repeatCount="indefinite" keyTimes="0;0.3;1" values="1;1;0" begin="-31.071428571428573s"></animate>
    </path><path d="M2438 869.5 L1210.1000537348089 869.5 A14.5 14.5 0 0 1 1210.1000537348089 899.5 L2438 899.5" fill="#fff">
      <animateTransform attributeName="transform" type="translate" dur="4.166666666666667s" repeatCount="indefinite" keyTimes="0;0.5;1" calcMode="spline" keySplines="0.5 0 0.5 1;0.5 0 0.5 1" values="148.93216876079572;0;148.93216876079572" begin="-32.14285714285714s"></animateTransform>
    </path><path d="M2180.146771083015 869.5 L2193.2935421660304 869.5 A14.5 14.5 0 0 1 2193.2935421660304 899.5 L2180.146771083015 899.5 A14.5 14.5 0 0 1 2180.146771083015 869.5" fill="#000">
      <animateTransform attributeName="transform" type="translate" dur="6.25s" repeatCount="indefinite" keyTimes="0;1" values="0;-1737.9689432448697" begin="-32.14285714285714s"></animateTransform>
      <animate attributeName="opacity" dur="6.25s" repeatCount="indefinite" keyTimes="0;0.3;1" values="1;1;0" begin="-32.14285714285714s"></animate>
    </path><path d="M2438 898.5 L1073.4112764811803 898.5 A14.5 14.5 0 0 0 1073.4112764811803 928.5 L2438 928.5" fill="#fff">
      <animateTransform attributeName="transform" type="translate" dur="6.25s" repeatCount="indefinite" keyTimes="0;0.5;1" calcMode="spline" keySplines="0.5 0 0.5 1;0.5 0 0.5 1" values="-141.1566982657228;0;-141.1566982657228" begin="-33.214285714285715s"></animateTransform>
    </path><path d="M1159.9449677696507 898.5 L1178.8713545837588 898.5 A14.5 14.5 0 0 1 1178.8713545837588 928.5 L1159.9449677696507 928.5 A14.5 14.5 0 0 1 1159.9449677696507 898.5" fill="#fff">
      <animateTransform attributeName="transform" type="translate" dur="4.166666666666667s" repeatCount="indefinite" keyTimes="0;1" values="0;0" begin="-33.214285714285715s"></animateTransform>
      <animate attributeName="opacity" dur="4.166666666666667s" repeatCount="indefinite" keyTimes="0;0.3;1" values="1;1;0" begin="-33.214285714285715s"></animate>
    </path><path d="M2438 927.5 L1296.4121000148884 927.5 A14.5 14.5 0 0 1 1296.4121000148884 957.5 L2438 957.5" fill="#fff">
      <animateTransform attributeName="transform" type="translate" dur="4.166666666666667s" repeatCount="indefinite" keyTimes="0;0.5;1" calcMode="spline" keySplines="0.5 0 0.5 1;0.5 0 0.5 1" values="119.75015767897811;0;119.75015767897811" begin="-34.285714285714285s"></animateTransform>
    </path><path d="M2206.1212265602185 927.5 L2245.242453120437 927.5 A14.5 14.5 0 0 1 2245.242453120437 957.5 L2206.1212265602185 957.5 A14.5 14.5 0 0 1 2206.1212265602185 927.5" fill="#000">
      <animateTransform attributeName="transform" type="translate" dur="4.166666666666667s" repeatCount="indefinite" keyTimes="0;1" values="0;-1865.4399933563946" begin="-34.285714285714285s"></animateTransform>
      <animate attributeName="opacity" dur="4.166666666666667s" repeatCount="indefinite" keyTimes="0;0.3;1" values="1;1;0" begin="-34.285714285714285s"></animate>
    </path><path d="M2438 956.5 L1098.2642501865032 956.5 A14.5 14.5 0 0 0 1098.2642501865032 986.5 L2438 986.5" fill="#fff">
      <animateTransform attributeName="transform" type="translate" dur="4.166666666666667s" repeatCount="indefinite" keyTimes="0;0.5;1" calcMode="spline" keySplines="0.5 0 0.5 1;0.5 0 0.5 1" values="-110.97914697422226;0;-110.97914697422226" begin="-35.357142857142854s"></animateTransform>
    </path><path d="M1148.5323591786432 956.5 L1187.6571367039162 956.5 A14.5 14.5 0 0 1 1187.6571367039162 986.5 L1148.5323591786432 986.5 A14.5 14.5 0 0 1 1148.5323591786432 956.5" fill="#fff">
      <animateTransform attributeName="transform" type="translate" dur="4.166666666666667s" repeatCount="indefinite" keyTimes="0;1" values="0;0" begin="-35.357142857142854s"></animateTransform>
      <animate attributeName="opacity" dur="4.166666666666667s" repeatCount="indefinite" keyTimes="0;0.3;1" values="1;1;0" begin="-35.357142857142854s"></animate>
    </path><path d="M2438 985.5 L1283.7113859501928 985.5 A14.5 14.5 0 0 1 1283.7113859501928 1015.5 L2438 1015.5" fill="#fff">
      <animateTransform attributeName="transform" type="translate" dur="12.5s" repeatCount="indefinite" keyTimes="0;0.5;1" calcMode="spline" keySplines="0.5 0 0.5 1;0.5 0 0.5 1" values="145.43135002465357;0;145.43135002465357" begin="-36.42857142857142s"></animateTransform>
    </path><path d="M2186.359553372162 985.5 L2205.7191067443237 985.5 A14.5 14.5 0 0 1 2205.7191067443237 1015.5 L2186.359553372162 1015.5 A14.5 14.5 0 0 1 2186.359553372162 985.5" fill="#000">
      <animateTransform attributeName="transform" type="translate" dur="6.25s" repeatCount="indefinite" keyTimes="0;1" values="0;-2329.9336516056655" begin="-36.42857142857142s"></animateTransform>
      <animate attributeName="opacity" dur="6.25s" repeatCount="indefinite" keyTimes="0;0.3;1" values="1;1;0" begin="-36.42857142857142s"></animate>
    </path>    </g>
      </mask>
    </defs>
    <rect x="0" y="0" width="2138" height="1012" fill="url(#ldbk-photon-p8vf02zzua-lg)" mask="url(#ldbk-photon-p8vf02zzua-mask)"></rect></g>
    </svg>